<?xml version="1.0" encoding="utf-8" standalone="no"?>
<!DOCTYPE svg PUBLIC "-//W3C//DTD SVG 1.1//EN"
  "http://www.w3.org/Graphics/SVG/1.1/DTD/svg11.dtd">
<svg xmlns:xlink="http://www.w3.org/1999/xlink" width="460.8pt" height="345.6pt" viewBox="0 0 460.8 345.6" xmlns="http://www.w3.org/2000/svg" version="1.1">
 <metadata>
  <rdf:RDF xmlns:dc="http://purl.org/dc/elements/1.1/" xmlns:cc="http://creativecommons.org/ns#" xmlns:rdf="http://www.w3.org/1999/02/22-rdf-syntax-ns#">
   <cc:Work>
    <dc:type rdf:resource="http://purl.org/dc/dcmitype/StillImage"/>
    <dc:date>2024-10-16T11:29:19.218183</dc:date>
    <dc:format>image/svg+xml</dc:format>
    <dc:creator>
     <cc:Agent>
      <dc:title>Matplotlib v3.8.0, https://matplotlib.org/</dc:title>
     </cc:Agent>
    </dc:creator>
   </cc:Work>
  </rdf:RDF>
 </metadata>
 <defs>
  <style type="text/css">*{stroke-linejoin: round; stroke-linecap: butt}</style>
 </defs>
 <g id="figure_1">
  <g id="patch_1">
   <path d="M 0 345.6 
L 460.8 345.6 
L 460.8 0 
L 0 0 
L 0 345.6 
z
" style="fill: none"/>
  </g>
  <g id="axes_1">
   <g id="LineCollection_1">
    <path d="M 291.064459 143.520244 
L 291.143494 143.905883 
L 291.051106 145.080107 
L 291.210979 145.893012 
L 291.367244 145.870795 
L 291.736972 146.088053 
L 292.225253 147.677265 
L 292.556727 147.729534 
L 292.796356 147.661363 
L 293.371791 147.728832 
L 293.913843 147.979182 
L 294.103309 147.774552 
L 294.129293 147.467023 
L 295.017075 146.697499 
L 295.203112 146.701942 
L 295.23451 147.020463 
L 295.384458 147.416509 
L 295.539279 147.631311 
L 295.926691 148.460821 
L 296.399633 148.492393 
L 297.111844 148.720993 
L 297.589298 148.293376 
L 297.970936 148.21854 
L 298.508116 148.651185 
L 299.167277 148.966315 
L 299.337615 148.944098 
L 299.41665 148.815006 
L 299.505969 148.337342 
L 300.399345 148.196206 
L 301.276662 149.155393 
L 301.647834 149.151417 
L 302.144415 149.085702 
L 302.298513 148.744262 
L 302.59426 148.66054 
L 302.814943 148.789164 
L 303.227256 149.033901 
L 303.760647 148.563253 
L 304.48188 148.417791 
L 304.814077 148.485728 
L 305.970539 147.889028 
L 307.014405 148.202637 
L 307.457394 148.502332 
L 307.570713 148.483272 
L 307.992229 147.740408 
L 308.060978 147.09717 
L 308.268668 146.94855 
L 308.502162 147.049345 
L 308.717432 147.067352 
L 308.892823 146.850796 
L 308.894447 145.681718 
L 309.614056 144.563972 
L 309.867579 144.482939 
L 310.427315 144.513809 
L 311.135195 145.275615 
L 310.956375 146.341093 
L 311.00329 146.436508 
L 311.132307 146.444694 
L 311.38962 147.365644 
L 312.446839 148.599385 
L 313.615572 149.494844 
L 313.97682 150.536701 
L 314.615048 151.399887 
L 314.328504 152.010385 
L 314.216088 152.989099 
L 314.430996 154.28762 
L 314.885894 154.574218 
L 315.287561 154.960559 
L 315.366957 155.471899 
L 315.144109 156.858703 
L 314.762651 157.236624 
L 315.062007 157.891556 
L 314.950312 158.258135 
L 314.472317 158.695809 
L 314.022833 158.812506 
L 313.969602 159.524266 
L 313.796917 160.741988 
L 313.785549 161.118038 
L 313.994864 161.345469 
L 313.951197 161.639551 
L 313.683779 162.638729 
L 313.710665 163.541788 
L 313.783925 163.914214 
L 313.153636 164.400648 
L 312.847243 165.151229 
L 312.455861 165.265822 
L 311.265475 165.276579 
L 310.776112 165.729688 
L 310.306417 165.681161 
L 309.53845 165.326275 
L 309.261649 165.463903 
L 309.131189 165.706301 
L 309.333285 166.990908 
L 309.224658 167.385433 
L 308.85096 167.569249 
L 308.474194 167.989968 
L 308.335793 168.95617 
L 308.494403 169.310472 
L 308.640563 169.415125 
L 309.269769 169.553338 
L 309.705721 169.491949 
L 309.968086 169.660914 
L 310.517536 170.22043 
L 310.890152 170.328942 
L 311.033966 170.37817 
L 311.574936 170.465284 
L 311.699622 170.710138 
L 311.623114 170.894422 
L 311.496803 171.219958 
L 311.500593 171.303213 
L 310.447163 172.36565 
L 310.455644 172.546192 
L 310.847928 173.084894 
L 310.663335 173.371375 
L 310.500033 173.503975 
L 309.71348 173.595064 
L 309.759132 174.274552 
L 308.853847 175.734555 
L 308.075774 175.686847 
L 307.71994 176.217948 
L 307.347324 176.3882 
L 307.52055 176.769629 
L 307.630801 177.014834 
L 307.499257 177.215722 
L 306.359034 177.839082 
L 305.974329 178.914381 
L 305.622825 178.930986 
L 304.889683 178.631876 
L 303.914566 178.288916 
L 303.537619 178.362583 
L 303.182145 178.296283 
L 303.058181 178.357906 
L 302.091364 178.182275 
L 301.568078 178.152107 
L 301.363455 178.287396 
L 301.161719 178.478228 
L 299.981799 179.10685 
L 298.747024 178.932038 
L 298.426556 179.003834 
L 298.127741 178.949344 
L 297.249162 178.312069 
L 296.335756 178.901402 
L 296.122833 180.206237 
L 296.041634 180.266106 
L 294.991993 180.389936 
L 294.868209 180.716291 
L 294.865142 181.189512 
L 295.049916 181.486049 
L 295.286838 181.974588 
L 295.184527 182.160859 
L 294.942011 182.368178 
L 294.899065 182.620749 
L 294.892389 183.553393 
L 294.68975 184.231827 
L 294.617032 184.722471 
L 294.191546 184.911665 
L 293.459306 185.144943 
L 293.292757 185.710189 
L 293.270201 185.808878 
L 293.368723 186.596761 
L 292.893615 186.899963 
L 292.865286 187.15195 
L 292.995386 188.258119 
L 292.646047 188.805357 
L 292.671129 189.012793 
L 292.454957 189.427782 
L 292.580726 190.200113 
L 292.98095 190.081544 
L 293.251615 189.900184 
L 293.45696 190.070202 
L 293.519574 190.192161 
L 294.053507 190.734488 
L 294.094828 191.246998 
L 294.761387 191.921691 
L 295.765555 192.634503 
L 296.069963 192.563175 
L 296.527388 192.205599 
L 296.702057 192.335744 
L 297.109318 192.620939 
L 297.438808 192.492666 
L 297.744118 192.713666 
L 298.870988 192.837145 
L 298.991344 193.276221 
L 298.956519 193.417241 
L 298.43215 194.111461 
L 298.044016 194.729325 
L 297.412824 195.234468 
L 296.559326 195.500954 
L 296.595776 195.930326 
L 296.666509 196.483176 
L 296.711981 198.164062 
L 296.379604 198.751642 
L 296.182921 198.998366 
L 296.106052 199.670019 
L 296.441316 200.47357 
L 296.446729 200.848803 
L 297.338662 201.09506 
L 297.415711 201.508294 
L 297.656062 201.565591 
L 298.013521 202.284601 
L 298.288697 203.299914 
L 298.125756 203.656087 
L 297.923299 204.055874 
L 297.985913 204.191865 
L 298.240699 204.540554 
L 298.272637 205.16485 
L 298.626848 205.285874 
L 298.926926 205.43765 
L 299.511563 206.256519 
L 299.662955 206.777448 
L 299.729719 206.718515 
L 300.019872 206.676069 
L 300.107387 207.033293 
L 300.385631 207.033176 
L 300.650703 207.325855 
L 300.654312 208.50803 
L 300.815087 209.223415 
L 300.550196 210.043453 
L 299.638956 210.158864 
L 299.040605 210.411669 
L 298.561888 211.103902 
L 298.549979 211.966854 
L 297.674648 211.691949 
L 297.489512 211.868398 
L 297.387381 212.040638 
L 296.624647 212.052331 
L 295.823477 211.871438 
L 295.543068 211.287835 
L 295.245697 210.913889 
L 294.970882 210.970133 
L 294.407898 211.361502 
L 293.689913 212.749124 
L 293.237 213.107167 
L 293.188099 213.749821 
L 292.745832 214.302204 
L 292.694767 214.638849 
L 292.261161 215.357859 
L 292.163902 216.128319 
L 292.030013 216.219057 
L 291.96379 216.793072 
L 290.807147 217.690753 
L 290.32031 218.162688 
L 289.975843 218.195545 
L 289.236747 217.846739 
L 288.989719 217.88825 
L 288.746301 217.999218 
L 287.340826 219.872923 
L 287.945132 220.785103 
L 287.894066 220.857484 
L 287.585869 221.041767 
L 287.472731 221.243006 
L 287.253672 222.034513 
L 286.525943 222.131332 
L 286.149177 222.55626 
L 285.885549 222.292931 
L 285.579517 221.767676 
L 285.016353 221.591227 
L 284.952656 221.692256 
L 284.396709 221.877358 
L 284.084362 221.978854 
L 283.707776 221.680563 
L 283.354107 221.784631 
L 282.728509 222.210612 
L 281.933655 222.090289 
L 281.768369 222.099995 
L 281.160274 221.871394 
L 280.988672 222.006801 
L 280.925517 222.107946 
L 280.380758 222.014986 
L 279.630113 222.658224 
L 279.384168 222.937456 
L 279.103579 222.870688 
L 278.959945 222.781937 
L 278.573255 222.791292 
L 278.134055 222.608996 
L 277.557538 222.90834 
L 276.643953 222.657873 
L 276.173897 223.118232 
L 276.165236 223.202188 
L 275.880496 223.748725 
L 274.982068 224.65307 
L 274.60061 225.191772 
L 274.046107 224.934173 
L 273.866205 224.931367 
L 273.516325 225.078583 
L 272.728689 225.072386 
L 272.331532 225.347992 
L 271.630509 225.183587 
L 271.292178 225.511345 
L 270.920283 225.534965 
L 270.746877 225.852434 
L 270.726667 226.187792 
L 269.937768 227.031919 
L 269.654833 228.01075 
L 269.776632 228.629316 
L 270.01157 229.296408 
L 270.550013 229.735134 
L 270.811115 230.163921 
L 270.902419 230.520093 
L 271.464682 231.806687 
L 271.832606 231.96431 
L 272.285519 231.935545 
L 272.974633 231.502198 
L 273.327942 231.424322 
L 273.59572 231.073295 
L 273.735744 230.438124 
L 274.196777 230.311839 
L 274.295119 230.347503 
L 274.675855 230.713497 
L 275.23541 230.400356 
L 275.637799 230.445023 
L 276.285772 230.22414 
L 276.362822 230.358494 
L 276.174619 231.121821 
L 276.259608 231.158304 
L 276.319876 231.934142 
L 276.612194 231.985826 
L 276.718295 232.146372 
L 276.776398 232.657829 
L 277.037861 232.655607 
L 277.156954 232.801538 
L 277.325668 233.097374 
L 277.679157 233.020199 
L 278.117274 232.520318 
L 278.339581 232.089193 
L 278.780765 231.867608 
L 279.23043 231.784821 
L 279.383807 232.053763 
L 279.439925 232.774293 
L 279.537906 233.032828 
L 279.801534 233.072584 
L 280.437237 232.881519 
L 280.544601 233.306563 
L 280.699421 233.84012 
L 280.895383 233.898118 
L 281.353529 233.731725 
L 281.649096 234.089885 
L 281.74852 234.139698 
L 282.369246 234.172673 
L 282.695488 233.861285 
L 283.767503 234.090821 
L 284.324893 233.974942 
L 284.495592 234.076438 
L 285.427583 234.022416 
L 285.643574 234.190914 
L 285.701136 234.479968 
L 285.784501 235.964293 
L 286.112547 236.182135 
L 287.383411 236.304562 
L 287.672662 237.067538 
L 288.155168 237.346419 
L 288.424209 237.247729 
L 288.952187 237.106827 
L 289.451474 237.705164 
L 289.898974 237.596769 
L 290.684626 238.165522 
L 291.087195 238.505207 
L 291.067346 238.645408 
L 290.983621 238.622139 
L 290.424967 239.460184 
L 290.090064 240.118858 
L 290.131566 240.381018 
L 289.89717 240.616634 
L 289.887967 241.201641 
L 290.241456 241.40475 
L 290.678851 241.380429 
L 290.611546 241.662583 
L 290.423885 241.993031 
L 290.295228 242.403693 
L 290.007782 242.656265 
L 290.26744 243.15673 
L 290.49931 243.394451 
L 291.084308 243.320317 
L 291.389619 243.651349 
L 291.628887 244.542833 
L 292.543555 245.021549 
L 292.605808 245.421688 
L 292.404794 246.796565 
L 291.579626 247.732482 
L 291.786955 248.04118 
L 291.491389 249.421202 
L 291.481464 250.006326 
L 291.404595 250.094024 
L 290.534316 250.170029 
L 290.439403 250.175408 
L 289.968265 250.563503 
L 290.018248 250.727674 
L 290.143295 251.026901 
L 290.161339 251.109455 
L 289.44155 252.585243 
L 290.051991 254.407499 
L 287.710736 255.602068 
L 287.048869 256.601362 
L 286.920934 256.848555 
L 286.061301 256.981505 
L 284.927033 257.247758 
L 284.381372 257.318969 
L 284.349253 257.5685 
L 284.605122 258.95051 
L 284.070287 259.828429 
L 283.851229 261.200032 
L 283.528415 261.721311 
L 283.048796 261.947222 
L 282.826309 262.873902 
L 282.939267 263.321281 
L 283.592292 263.877639 
L 283.553858 264.419031 
L 283.3514 265.026372 
L 283.719505 265.562735 
L 283.833365 265.954571 
L 283.583631 266.880549 
L 282.519194 268.637324 
L 283.317657 269.919942 
L 283.622065 270.886144 
L 284.077685 271.716473 
L 284.067761 272.202907 
L 283.553858 274.194128 
L 283.576774 274.375371 
L 284.080211 274.83152 
L 284.100782 275.791525 
L 283.654004 275.865075 
L 283.04627 275.907404 
L 282.487075 276.215167 
L 282.203959 276.223001 
L 282.010163 276.469258 
L 281.982194 277.177861 
L 281.524229 278.545021 
L 281.145117 278.634356 
L 280.755178 278.584544 
L 280.441387 278.800515 
L 279.695072 279.800745 
L 279.085534 279.997072 
L 278.574698 279.972985 
L 277.185644 280.071207 
L 276.607864 280.032386 
L 275.919833 280.11681 
L 275.195171 279.978363 
L 274.462751 280.312903 
L 273.758119 281.399077 
L 273.677641 282.218063 
L 273.764615 282.678538 
L 273.466342 283.646963 
L 273.03851 284.348901 
L 271.559054 285.283532 
L 271.003287 286.526159 
L 270.386892 287.336843 
L 269.439925 286.94641 
L 268.776614 287.339533 
L 268.400209 287.389345 
L 266.37076 288.653021 
L 265.509684 288.877412 
L 264.967812 289.315085 
L 264.482779 289.503345 
L 264.312982 291.323379 
L 263.375217 292.451765 
L 262.894876 293.4472 
L 262.543011 293.76268 
L 261.46847 294.166911 
L 260.680112 295.298221 
L 260.236943 295.488 
L 259.997494 295.373875 
L 259.549273 294.743031 
L 259.214189 294.808864 
L 258.867557 294.693803 
L 258.548713 294.467892 
L 257.627729 294.263497 
L 256.953953 294.78536 
L 256.590901 295.046117 
L 255.776198 294.843592 
L 255.590702 294.661063 
L 255.791716 294.607274 
L 256.007888 294.372827 
L 256.321498 293.694159 
L 256.205834 293.150545 
L 255.953213 292.953399 
L 255.098633 292.709013 
L 253.919975 292.810042 
L 253.240966 292.331442 
L 252.867989 292.092084 
L 252.368883 292.574893 
L 251.858408 292.849214 
L 251.470635 292.721174 
L 250.778634 292.14599 
L 250.862359 291.63196 
L 248.987551 291.508247 
L 247.623578 291.194287 
L 247.153884 291.34466 
L 246.352354 290.909442 
L 245.051897 291.070223 
L 244.553873 291.652306 
L 244.325431 291.915752 
L 243.90987 291.997487 
L 243.331548 292.732516 
L 243.156338 293.177089 
L 243.086506 294.025191 
L 242.925009 294.330732 
L 242.51035 294.384988 
L 242.122757 294.216841 
L 241.949892 293.86862 
L 241.937622 293.42358 
L 241.657573 293.047061 
L 241.376623 292.9907 
L 240.213664 292.320217 
L 239.571105 292.221644 
L 238.018749 291.301396 
L 237.122666 289.228205 
L 237.149552 288.713708 
L 236.81501 288.00417 
L 236.734713 287.044515 
L 236.963335 286.460444 
L 237.648479 285.876957 
L 237.796442 285.32095 
L 238.025245 284.97343 
L 238.414642 284.93227 
L 239.180264 285.113981 
L 239.462658 284.905961 
L 239.383985 283.751616 
L 239.587525 282.556112 
L 239.480522 282.305645 
L 239.130823 282.096455 
L 239.171783 281.776648 
L 239.401127 281.290331 
L 239.509754 280.734324 
L 239.281854 280.233273 
L 239.012812 279.982573 
L 238.851857 280.024083 
L 238.258558 280.579507 
L 236.96568 282.344232 
L 236.65622 282.594348 
L 236.024487 282.663688 
L 235.634729 282.455083 
L 234.975388 281.175973 
L 234.89473 280.981282 
L 233.307909 281.983616 
L 233.079829 282.331487 
L 232.744925 283.263545 
L 232.489959 283.541958 
L 232.087028 283.709521 
L 231.576012 283.68251 
L 231.227395 284.003135 
L 230.799925 285.213841 
L 230.504899 285.409233 
L 230.007236 285.034936 
L 229.295747 285.16204 
L 228.664014 284.913795 
L 228.180426 284.95706 
L 227.011512 284.891812 
L 226.689601 285.032246 
L 225.540176 286.219332 
L 224.69985 287.34994 
L 224.150039 287.477979 
L 223.45497 287.968389 
L 223.187733 288.220375 
L 222.461989 287.946406 
L 221.967574 288.227625 
L 220.877154 289.736856 
L 220.195979 290.117233 
L 219.83401 290.078061 
L 219.627402 289.272873 
L 219.400404 289.385829 
L 218.588949 290.240479 
L 218.103556 289.85484 
L 217.889189 289.898338 
L 217.326386 289.889217 
L 216.96207 289.600164 
L 216.366065 288.826547 
L 215.948519 288.6218 
L 215.336996 287.681557 
L 215.185242 287.21009 
L 215.408992 286.707286 
L 215.580053 286.316385 
L 215.140673 285.20776 
L 214.812627 284.543474 
L 214.670978 283.738169 
L 213.724011 281.619843 
L 212.908406 280.766012 
L 212.727782 280.170014 
L 212.813673 279.320859 
L 214.272198 276.9005 
L 215.274562 275.917577 
L 216.259964 274.448687 
L 216.298399 274.170391 
L 215.908641 271.184553 
L 215.594488 270.812127 
L 213.750897 270.218 
L 213.323787 269.374341 
L 213.132336 269.153809 
L 212.931683 267.988122 
L 212.589562 267.616281 
L 210.296486 268.295066 
L 209.903299 268.230052 
L 209.52112 267.928721 
L 209.473122 267.275894 
L 209.342841 267.180478 
L 209.064958 266.511748 
L 208.761633 266.270052 
L 207.695031 266.394116 
L 207.176436 266.423465 
L 207.14955 265.45586 
L 206.628429 263.850161 
L 206.323299 263.312043 
L 206.375447 263.130566 
L 206.454121 261.850754 
L 206.276203 261.741891 
L 205.092133 262.494694 
L 202.206299 262.70365 
L 201.694922 262.975632 
L 200.861454 264.365009 
L 200.850446 264.545901 
L 200.696348 265.104482 
L 200.521317 265.16283 
L 200.1072 264.66903 
L 199.856383 262.490485 
L 199.081378 261.488384 
L 198.709484 261.147062 
L 198.387573 259.692906 
L 198.363213 258.205775 
L 196.952144 258.341415 
L 196.381221 258.323759 
L 195.847288 258.875557 
L 195.785938 259.251958 
L 195.264636 260.526508 
L 195.026992 260.892386 
L 193.877386 261.873205 
L 193.515777 262.116539 
L 193.123313 262.902667 
L 192.511429 263.554091 
L 191.090797 264.402777 
L 190.248486 264.336594 
L 189.983595 264.647982 
L 189.125766 265.778356 
L 187.308519 266.957841 
L 186.946189 267.10494 
L 185.970531 267.071147 
L 184.854487 266.790863 
L 184.530591 266.242222 
L 184.175659 266.111493 
L 182.971559 266.168088 
L 182.065191 266.2179 
L 181.345402 266.708427 
L 180.517707 267.785831 
L 180.228276 267.556763 
L 179.766882 266.386515 
L 179.674314 265.916101 
L 179.33923 264.951302 
L 178.879641 263.906405 
L 178.024699 263.330869 
L 177.270806 263.545555 
L 176.707281 264.325369 
L 175.857753 266.058874 
L 175.499572 266.346642 
L 175.200758 266.313199 
L 174.499734 264.90032 
L 174.58743 264.633717 
L 175.264093 263.558183 
L 174.787181 262.444998 
L 174.510561 262.244111 
L 173.707948 262.169275 
L 173.559624 261.200149 
L 174.365665 258.84153 
L 174.615399 256.985247 
L 174.621173 256.164858 
L 174.377033 255.698887 
L 173.364564 255.490983 
L 172.253934 255.675618 
L 172.053461 255.820496 
L 171.602353 256.709523 
L 171.052361 257.476475 
L 169.834547 259.111641 
L 169.073075 259.565568 
L 168.628823 259.690333 
L 164.966 258.984654 
L 164.255233 258.409703 
L 163.81459 257.798387 
L 163.77796 257.493547 
L 163.087402 256.292547 
L 162.739327 256.039858 
L 162.234265 256.418131 
L 162.229032 256.265419 
L 161.889618 255.44234 
L 161.762947 253.611081 
L 161.839635 251.759241 
L 161.639523 251.473929 
L 161.698528 251.293621 
L 162.139713 250.662778 
L 162.274324 250.433242 
L 161.92715 250.011471 
L 161.685897 249.650855 
L 161.141138 249.344144 
L 160.697067 248.667113 
L 160.075258 248.259257 
L 159.790879 247.9246 
L 159.704266 246.640111 
L 160.288362 246.447525 
L 160.407816 246.245 
L 160.170713 245.787565 
L 160.172156 245.481439 
L 159.206964 244.527632 
L 159.027062 244.017461 
L 159.007574 243.849548 
L 158.552315 243.367206 
L 157.891169 241.483328 
L 157.386469 241.151945 
L 157.577559 240.605058 
L 157.795173 240.08717 
L 157.467849 239.486494 
L 156.953043 238.500881 
L 157.844254 237.961127 
L 158.594899 237.76246 
L 158.955245 236.305965 
L 158.80674 235.978558 
L 158.638927 235.483004 
L 159.308734 233.889232 
L 159.812352 233.44197 
L 160.08843 233.149876 
L 160.249567 233.227752 
L 161.453666 230.368316 
L 163.022623 229.044772 
L 163.189172 228.761331 
L 163.68864 228.690237 
L 164.204889 228.8288 
L 164.330297 229.072017 
L 165.223312 229.648254 
L 165.709608 229.312545 
L 166.641959 229.140071 
L 167.643602 228.707309 
L 167.900373 228.289981 
L 167.799324 227.853126 
L 167.415341 227.303667 
L 167.255468 227.19761 
L 167.362831 226.994734 
L 167.159832 226.663585 
L 167.631512 225.840507 
L 167.793189 225.139738 
L 167.289932 223.442716 
L 167.370771 223.224522 
L 167.911019 222.683364 
L 169.036806 222.063161 
L 169.178454 222.001422 
L 169.516064 221.644314 
L 170.32788 221.967512 
L 170.776643 222.354203 
L 171.038466 222.36882 
L 171.173258 221.931146 
L 171.156116 220.984003 
L 171.567346 220.060832 
L 171.460524 219.233894 
L 171.718558 218.330016 
L 171.626712 217.990799 
L 171.444825 217.771903 
L 170.909269 217.686427 
L 170.512654 217.344286 
L 169.691275 217.159769 
L 169.07506 217.278922 
L 168.983214 217.190405 
L 169.04637 216.790383 
L 168.850769 216.570903 
L 168.468048 216.466484 
L 167.9767 216.578855 
L 167.766303 216.372705 
L 167.633677 216.00367 
L 167.624835 215.391067 
L 167.870058 214.959124 
L 168.560796 214.245376 
L 167.76919 212.713577 
L 167.409386 210.885592 
L 167.463339 210.401613 
L 169.27824 205.672331 
L 170.067139 204.755591 
L 170.385441 204.286112 
L 170.581222 203.517757 
L 170.755531 203.388197 
L 171.046767 202.917315 
L 171.523499 200.870669 
L 171.780089 200.272683 
L 171.734798 199.588401 
L 172.853728 198.328935 
L 173.258824 198.323907 
L 173.738624 198.490066 
L 174.117014 198.469837 
L 174.399047 198.179614 
L 175.072282 198.134479 
L 175.468897 197.55871 
L 176.168837 197.543275 
L 176.590714 197.261354 
L 177.160916 197.308243 
L 177.31321 197.094493 
L 177.440062 196.127706 
L 177.06889 195.535566 
L 177.592537 194.243827 
L 177.548148 193.809895 
L 177.320608 193.629588 
L 177.143954 193.299491 
L 177.302564 192.501435 
L 177.515487 192.221502 
L 177.623754 191.810372 
L 178.311424 191.321483 
L 178.330912 190.98858 
L 178.188001 190.562833 
L 177.901095 190.198125 
L 176.78 189.701869 
L 176.59306 189.301379 
L 176.730378 188.154284 
L 176.875815 187.828748 
L 177.026846 186.209134 
L 177.392605 185.9658 
L 177.034064 184.41424 
L 177.559335 183.136416 
L 177.66309 182.571755 
L 178.111673 181.887942 
L 178.115823 181.108712 
L 177.976882 180.12649 
L 177.98428 179.764939 
L 178.217954 179.388888 
L 178.307274 178.837324 
L 178.520378 178.807857 
L 178.867731 178.89766 
L 179.085707 178.785172 
L 179.712027 177.513312 
L 179.868471 177.258051 
L 179.999293 177.196078 
L 180.26653 176.738526 
L 180.300273 176.420356 
L 180.823739 176.158898 
L 180.956004 175.846575 
L 181.061023 175.282031 
L 181.414151 174.815826 
L 181.513214 173.889029 
L 181.349552 172.403769 
L 181.284231 172.07987 
L 181.444826 171.769184 
L 181.297404 171.175758 
L 181.431654 171.058476 
L 181.029084 170.70055 
L 180.887436 170.469377 
L 180.902052 169.996975 
L 181.17795 169.191903 
L 181.064271 168.962484 
L 180.829514 168.865198 
L 180.919374 167.854211 
L 180.85243 167.557907 
L 181.041896 166.775637 
L 180.816883 166.51184 
L 180.474581 166.310719 
L 180.232245 165.864977 
L 180.385262 164.983082 
L 180.74254 164.711685 
L 180.981988 164.04354 
L 181.438691 164.00086 
L 182.355705 164.779037 
L 182.836226 164.807568 
L 183.202166 164.857264 
L 183.998463 165.517691 
L 184.252708 165.533009 
L 184.395439 165.290962 
L 184.957521 163.348033 
L 185.64068 162.874228 
L 186.882131 161.669018 
L 186.650081 161.29285 
L 185.781967 160.86383 
L 185.840431 160.394 
L 184.850698 159.401138 
L 184.502803 158.823147 
L 184.244769 158.626585 
L 183.825237 158.058417 
L 183.686837 157.994455 
L 183.062322 158.193823 
L 182.951169 157.92266 
L 183.016489 157.105077 
L 182.999528 156.226806 
L 183.255216 155.782585 
L 183.449734 155.181559 
L 183.274163 154.572347 
L 183.275065 154.09901 
L 182.844166 153.460682 
L 182.293091 152.453203 
L 182.343796 151.411931 
L 181.746889 150.903397 
L 181.688966 150.454264 
L 182.457475 150.040094 
L 182.640986 149.842012 
L 182.801581 149.099616 
L 182.714066 148.439891 
L 182.778665 148.095528 
L 182.656144 147.768004 
L 182.810964 147.122544 
L 182.932944 146.767658 
L 183.216782 146.575656 
L 183.807734 146.736203 
L 184.307924 146.515437 
L 184.339862 146.238778 
L 184.182335 145.783682 
L 184.366027 145.599632 
L 185.31119 145.141028 
L 185.999221 144.904125 
L 187.132226 144.875477 
L 187.543276 144.49662 
L 187.628085 144.51568 
L 187.898389 144.323445 
L 188.635862 143.783807 
L 189.447678 143.416059 
L 190.010662 143.353501 
L 190.381293 142.944709 
L 190.016616 142.39256 
L 189.389936 141.670978 
L 190.168189 141.176008 
L 190.341415 140.072294 
L 191.00274 138.762197 
L 190.970441 137.729227 
L 191.418302 137.26957 
L 191.838555 137.212274 
L 192.737524 137.519803 
L 193.261532 137.427545 
L 194.580936 136.410828 
L 195.192639 136.505776 
L 195.378676 136.308747 
L 196.032243 136.420533 
L 196.024664 134.859385 
L 195.75851 133.922415 
L 195.486762 133.054786 
L 195.797306 132.308414 
L 196.107127 131.157811 
L 196.452676 130.329938 
L 196.354154 130.086487 
L 195.676408 129.666704 
L 195.462763 129.415887 
L 195.499032 129.097717 
L 195.34331 128.786095 
L 195.196789 127.374151 
L 194.762642 126.581241 
L 194.674766 126.3641 
L 194.608363 126.048035 
L 195.336453 124.74355 
L 195.288455 124.481858 
L 195.016346 123.928657 
L 194.97755 123.206256 
L 194.711577 122.931701 
L 194.347261 122.900831 
L 194.166998 123.205905 
L 193.861688 123.185091 
L 193.692792 123.057285 
L 193.478967 122.123824 
L 193.294734 121.983039 
L 193.28102 121.802731 
L 192.974266 120.987136 
L 193.272179 120.506314 
L 193.286614 120.310221 
L 193.225444 120.077294 
L 192.466318 119.808937 
L 192.287679 119.556365 
L 192.36942 119.285787 
L 192.572238 119.28567 
L 192.43889 118.667338 
L 192.315106 118.564204 
L 192.374472 117.807075 
L 192.020983 117.733876 
L 191.905499 117.741944 
L 191.319779 117.475692 
L 191.130675 117.47499 
L 190.763111 117.793511 
L 190.618937 117.803684 
L 190.508866 117.50434 
L 190.86037 116.391973 
L 190.636981 116.128644 
L 190.708617 115.733066 
L 191.152508 115.451028 
L 191.184266 115.295393 
L 191.00274 114.819834 
L 191.227392 113.757864 
L 190.565165 111.348848 
L 190.289627 110.977475 
L 190.285297 108.8153 
L 190.680829 108.271453 
L 190.830777 107.940304 
L 191.168387 107.777185 
L 191.484163 107.518065 
L 191.701237 107.112431 
L 192.651453 107.14447 
L 193.882258 107.423 
L 194.969791 107.934925 
L 195.483514 107.788644 
L 195.90882 107.425105 
L 196.233618 106.691712 
L 196.774046 106.306775 
L 196.76322 106.154063 
L 197.13746 106.087061 
L 197.217396 105.984162 
L 197.084229 104.960663 
L 197.341722 104.483116 
L 197.721555 104.290413 
L 197.875474 104.001126 
L 197.659122 103.429683 
L 197.658761 102.425127 
L 197.623755 102.343743 
L 196.729116 101.705883 
L 196.554807 101.522184 
L 196.023221 100.65093 
L 195.339701 100.306217 
L 195.250201 100.284234 
L 194.699126 100.349364 
L 193.759557 99.910756 
L 193.689003 99.552829 
L 193.694056 99.426777 
L 193.226165 99.235361 
L 193.197836 97.688361 
L 192.978056 97.103238 
L 193.297621 96.285889 
L 193.155432 96.155978 
L 193.352837 96.044893 
L 193.308989 95.852658 
L 193.204693 95.245435 
L 193.30141 94.582786 
L 193.125478 93.994739 
L 193.215519 93.44411 
L 193.038685 93.232815 
L 192.942328 92.932302 
L 192.975529 92.008779 
L 192.945034 91.019775 
L 192.768019 90.431611 
L 192.721104 90.197398 
L 192.848497 90.132735 
L 193.17095 88.952198 
L 192.998265 88.419342 
L 193.070443 88.205008 
L 193.62657 87.580829 
L 193.727798 87.560015 
L 194.248919 87.636605 
L 194.72114 87.855968 
L 195.032947 87.695304 
L 195.455726 87.24816 
L 195.65692 87.178936 
L 196.25491 86.915607 
L 196.85272 86.833989 
L 196.890252 86.747694 
L 196.769174 85.904036 
L 196.359207 84.940055 
L 196.268083 84.904274 
L 196.071941 84.442629 
L 196.1286 84.215432 
L 195.884821 84.105985 
L 195.618306 83.495604 
L 195.247674 83.073482 
L 195.211044 82.978183 
L 195.26608 82.332255 
L 194.730884 81.292737 
L 194.584544 80.520523 
L 194.678014 80.192999 
L 195.423246 81.274262 
L 195.695174 81.954334 
L 195.91315 82.107397 
L 196.07988 81.970587 
L 196.359928 81.770401 
L 196.860298 81.946733 
L 197.003931 81.699657 
L 197.502497 81.457376 
L 197.549412 81.091148 
L 197.451431 80.762571 
L 197.083507 79.97691 
L 197.184736 79.74679 
L 197.156406 79.162134 
L 197.008443 78.766906 
L 197.51585 77.825727 
L 197.039659 76.991189 
L 196.892056 76.791354 
L 197.041825 76.418343 
L 197.138181 75.51809 
L 197.082605 75.368184 
L 197.005195 73.72495 
L 197.298235 73.481967 
L 197.533714 73.466532 
L 198.399121 73.549553 
L 198.363393 73.468052 
L 198.274615 73.264358 
L 198.368446 73.132577 
L 198.403271 72.59937 
L 197.88594 71.208357 
L 197.830182 70.653051 
L 197.543277 70.182987 
L 197.899834 69.586872 
L 197.642341 69.114587 
L 196.897109 68.073782 
L 196.931574 67.540459 
L 197.721195 67.167332 
L 198.332176 67.602433 
L 198.462276 67.552035 
L 198.544017 67.854186 
L 198.713814 68.345998 
L 198.896965 68.417911 
L 199.155721 68.303318 
L 199.300256 68.042562 
L 200.542429 67.361438 
L 200.864521 66.069231 
L 201.001478 65.906813 
L 201.306066 65.803446 
L 202.691332 65.435932 
L 203.682869 65.163716 
L 204.368193 65.190376 
L 204.976288 65.166522 
L 205.357385 64.877351 
L 205.799832 64.402611 
L 207.005556 63.993001 
L 207.323498 63.218916 
L 207.460454 62.623736 
L 207.240494 60.96039 
L 207.904887 60.444607 
L 207.854363 59.930694 
L 207.34894 58.885563 
L 206.998519 58.767346 
L 206.422363 58.84452 
L 206.141412 58.6662 
L 205.890415 58.066811 
L 205.742632 57.027643 
L 206.172809 56.777527 
L 206.430663 56.412117 
L 207.019992 56.515718 
L 207.221547 56.405335 
L 207.521264 55.995842 
L 208.101029 55.750755 
L 209.08589 55.95667 
L 209.242695 55.849328 
L 209.290693 55.469067 
L 209.363051 55.213105 
L 209.758583 54.881839 
L 209.55378 54.293207 
L 209.672873 53.852727 
L 210.194535 53.611615 
L 210.356212 53.573963 
L 211.109925 53.668795 
L 211.492646 54.02333 
L 211.828451 54.12927 
L 212.696565 55.265958 
L 213.460744 55.528702 
L 216.788844 55.741166 
L 217.111297 55.191823 
L 217.254389 55.323488 
L 218.069633 56.157441 
L 218.365199 56.112774 
L 218.928363 56.053139 
L 219.088778 56.225612 
L 219.190006 56.639198 
L 219.111694 57.048808 
L 219.282574 57.388493 
L 219.61062 57.859024 
L 219.627402 60.456651 
L 219.719789 60.968341 
L 219.923149 61.124561 
L 219.974034 61.45688 
L 220.071654 62.289547 
L 220.425864 62.241839 
L 220.727746 62.546328 
L 221.066439 63.435356 
L 221.345405 63.615313 
L 221.497158 63.66267 
L 222.13665 64.381446 
L 222.348129 65.151789 
L 222.569353 66.564084 
L 222.836771 67.038123 
L 223.254678 67.071097 
L 223.990707 67.212467 
L 224.200563 67.494271 
L 225.451758 68.543612 
L 226.587831 69.18077 
L 226.874014 69.067698 
L 227.246269 69.536475 
L 227.819178 71.181229 
L 228.078475 71.809734 
L 228.876035 72.270209 
L 229.616034 73.278273 
L 230.505802 73.566976 
L 230.431098 74.059256 
L 229.904744 74.421626 
L 229.87461 74.660517 
L 230.083383 74.986287 
L 230.372454 74.82995 
L 230.682997 74.576677 
L 231.092424 74.750904 
L 231.617695 75.14239 
L 231.886375 75.184368 
L 232.138816 75.464418 
L 232.932948 77.977504 
L 233.08867 78.122966 
L 233.325051 78.124954 
L 233.22292 78.925348 
L 232.508364 79.589634 
L 232.275772 80.42464 
L 231.172901 81.248771 
L 231.065177 81.421829 
L 231.109385 82.18691 
L 231.416861 83.175329 
L 231.765839 83.35248 
L 232.511792 83.523433 
L 233.006749 84.195671 
L 233.689547 84.300324 
L 234.573721 84.841599 
L 234.960411 84.919592 
L 236.423267 85.823002 
L 236.720277 85.87796 
L 237.035151 86.252958 
L 237.076112 86.46016 
L 238.230048 87.407537 
L 238.647053 87.777624 
L 238.756763 88.176827 
L 238.563328 88.674252 
L 239.010647 89.89326 
L 239.441005 89.705118 
L 239.98414 89.706755 
L 240.654307 89.883672 
L 240.811113 89.792582 
L 241.318159 89.67074 
L 242.17707 89.811408 
L 242.388731 89.647938 
L 242.313125 89.038025 
L 242.729949 88.586203 
L 243.714991 88.609823 
L 245.924161 89.888232 
L 246.535504 89.790711 
L 247.455044 89.98622 
L 247.743573 90.182314 
L 248.457949 90.080584 
L 248.699563 90.515919 
L 249.062255 91.029481 
L 249.298094 91.04702 
L 250.815986 90.896764 
L 251.692219 91.123493 
L 252.455496 90.825669 
L 253.540863 90.821226 
L 254.01525 89.672143 
L 254.285734 89.493589 
L 255.062183 89.781474 
L 255.353238 89.727569 
L 255.388605 89.544922 
L 255.628234 89.32591 
L 256.50537 88.927175 
L 256.614539 88.100354 
L 256.783253 87.940041 
L 257.133675 87.883914 
L 259.20246 88.497219 
L 259.790886 88.195068 
L 259.867214 87.927179 
L 259.659163 86.541544 
L 259.923332 85.86194 
L 260.351164 85.900761 
L 261.112275 86.163623 
L 261.224871 86.382167 
L 260.91902 88.471026 
L 261.323213 88.650398 
L 262.104353 88.7174 
L 262.448639 89.219853 
L 263.355188 90.17448 
L 263.683956 90.315265 
L 264.358273 90.303572 
L 265.518886 89.995107 
L 266.661455 89.952544 
L 267.386297 89.730843 
L 267.46894 88.877713 
L 267.958303 88.636951 
L 268.976726 88.405194 
L 269.25912 88.492541 
L 269.516072 89.05463 
L 269.774106 89.268497 
L 270.030336 89.816904 
L 270.937606 90.133203 
L 274.524824 91.138811 
L 275.322745 91.307075 
L 276.128967 91.308478 
L 276.288479 91.24744 
L 276.473975 90.711895 
L 276.83432 90.128876 
L 277.300045 90.03007 
L 277.926545 90.316434 
L 278.337957 90.345082 
L 278.373323 90.929154 
L 279.564612 91.462594 
L 279.837082 91.286963 
L 280.378773 91.270008 
L 280.901698 91.560231 
L 281.476231 92.503866 
L 281.216572 93.055197 
L 280.234057 94.29759 
L 280.172706 94.633768 
L 280.469356 95.181707 
L 280.478739 95.445972 
L 280.065884 96.628848 
L 279.81218 97.319443 
L 279.752814 97.725195 
L 280.01554 98.134805 
L 280.271409 98.363522 
L 280.001646 98.998809 
L 279.782588 100.273008 
L 280.598734 101.528732 
L 280.422079 101.896247 
L 280.530526 102.073983 
L 279.918101 102.510954 
L 279.560462 103.134782 
L 278.452899 102.724471 
L 278.158415 102.650453 
L 277.907599 102.978679 
L 277.530472 103.854377 
L 276.682026 104.16062 
L 276.485343 103.972127 
L 276.343514 103.670327 
L 276.047948 103.554799 
L 275.723871 103.064273 
L 275.550465 102.707867 
L 275.463491 102.320941 
L 275.178029 102.093627 
L 275.092138 102.138412 
L 274.993977 102.64297 
L 275.04829 102.933661 
L 275.038727 103.463125 
L 275.491279 103.879634 
L 275.368397 104.106598 
L 275.114333 103.934124 
L 274.709778 103.627414 
L 274.455353 103.45494 
L 274.174763 103.742825 
L 274.242069 104.381269 
L 274.598986 105.761759 
L 274.52338 106.474454 
L 274.33229 106.815075 
L 273.355008 107.544725 
L 272.582529 109.047174 
L 272.662466 109.239292 
L 272.757018 109.820791 
L 273.773818 109.799744 
L 273.809004 109.965669 
L 273.55909 110.280565 
L 272.976798 111.024715 
L 272.744207 111.408717 
L 272.559974 111.52635 
L 272.409845 111.782195 
L 273.613042 112.116501 
L 273.722572 112.321716 
L 274.3608 112.313881 
L 274.660698 112.178358 
L 275.513654 112.873631 
L 275.461326 113.432211 
L 275.192826 114.025988 
L 275.300189 114.189341 
L 275.933185 114.446589 
L 275.997784 114.625494 
L 275.761945 114.925656 
L 274.968354 115.425537 
L 274.836269 115.778085 
L 275.021224 116.07813 
L 274.945798 116.386945 
L 275.638882 116.725461 
L 276.141237 117.000951 
L 276.395121 117.215169 
L 276.829809 116.811289 
L 277.239597 116.519428 
L 277.575222 116.591926 
L 278.245028 117.099056 
L 278.620712 117.490659 
L 279.027612 117.533222 
L 279.125412 117.850105 
L 279.057926 118.409154 
L 279.752273 118.818413 
L 279.660427 119.085834 
L 279.221589 119.795607 
L 279.609181 120.131199 
L 280.009586 120.842258 
L 280.193638 121.574013 
L 280.172346 121.797352 
L 280.48722 122.1354 
L 280.731721 122.531212 
L 281.148906 122.476488 
L 281.750324 122.74999 
L 283.104192 123.501624 
L 283.301598 123.801786 
L 283.344002 124.218061 
L 283.022271 124.533893 
L 282.898667 125.163801 
L 283.147138 125.267636 
L 283.519573 125.172922 
L 283.808283 125.178066 
L 284.226912 125.638658 
L 284.348892 125.843756 
L 285.071929 125.905729 
L 285.565623 126.46162 
L 285.302716 126.817208 
L 284.651496 127.184372 
L 284.561815 127.534815 
L 284.370004 127.84667 
L 284.670262 128.241196 
L 286.078082 128.561471 
L 286.224061 128.977512 
L 286.009153 129.504521 
L 285.970538 130.314503 
L 286.436443 130.888051 
L 286.709996 130.886998 
L 286.933204 130.763519 
L 287.469302 131.806896 
L 288.119079 131.590807 
L 288.338318 131.899272 
L 288.560986 131.762111 
L 288.692529 131.796723 
L 289.066408 132.542744 
L 289.400409 132.594427 
L 289.800452 132.284092 
L 290.33637 132.326187 
L 290.874813 132.962059 
L 290.893579 133.295313 
L 290.833311 133.75801 
L 291.202138 133.919609 
L 291.499689 134.61418 
L 291.461255 135.214972 
L 291.256271 135.406857 
L 291.037032 135.599325 
L 290.603065 136.819736 
L 290.460695 137.356333 
L 290.643484 138.056868 
L 290.250298 138.718114 
L 290.24687 139.163856 
L 290.21042 139.541661 
L 289.874615 140.199983 
L 289.967182 140.571006 
L 290.00706 141.529608 
L 290.052712 142.084095 
L 290.70285 143.205115 
L 291.064459 143.520244 
L 291.064459 143.520244 
" clip-path="url(#pc3f7abc9d2)" style="fill: none; stroke: #000000; stroke-width: 1.5"/>
   </g>
  </g>
 </g>
 <defs>
  <clipPath id="pc3f7abc9d2">
   <rect x="149.032348" y="41.472" width="174.255304" height="266.112"/>
  </clipPath>
 </defs>
</svg>
